<?xml version="1.0" encoding="UTF-8" standalone="no"?>
<svg
   viewBox="0 0 350 75"
   width="350"
   height="75"
   role="img"
   aria-label="Nabil Ghosn — wordmark and monogram"
   version="1.1"
   id="svg2"
   sodipodi:docname="wordmark-h-light-350x75-outline.svg"
   inkscape:export-filename="wordmark-h-light-middle.png"
   inkscape:export-xdpi="96"
   inkscape:export-ydpi="96"
   inkscape:version="1.4.3 (0d15f75, 2025-12-25)"
   xmlns:inkscape="http://www.inkscape.org/namespaces/inkscape"
   xmlns:sodipodi="http://sodipodi.sourceforge.net/DTD/sodipodi-0.dtd"
   xmlns="http://www.w3.org/2000/svg"
   xmlns:svg="http://www.w3.org/2000/svg"
   xmlns:rdf="http://www.w3.org/1999/02/22-rdf-syntax-ns#"
   xmlns:cc="http://creativecommons.org/ns#"
   xmlns:dc="http://purl.org/dc/elements/1.1/">
  <sodipodi:namedview
     id="namedview2"
     pagecolor="#ffffff"
     bordercolor="#000000"
     borderopacity="0.25"
     inkscape:showpageshadow="2"
     inkscape:pageopacity="0.0"
     inkscape:pagecheckerboard="0"
     inkscape:deskcolor="#d1d1d1"
     showguides="true"
     inkscape:zoom="1.4142136"
     inkscape:cx="168.29141"
     inkscape:cy="35.001786"
     inkscape:window-width="1366"
     inkscape:window-height="745"
     inkscape:window-x="-8"
     inkscape:window-y="-8"
     inkscape:window-maximized="1"
     inkscape:current-layer="svg2" />
  <defs
     id="defs1">
    <style
       type="text/css"
       id="style1">
            @import url(&quot;https://fonts.googleapis.com&quot;);
            @import url(&quot;https://fonts.gstatic.com&quot;);
            @import url(&quot;https://fonts.googleapis.com/css2?family=Archivo:wght@600;900&amp;display=swap&quot;);
        </style>
  </defs>
  <title
     id="title1">Nabil Ghosn</title>
  <g
     inkscape:groupmode="layer"
     id="layer3"
     inkscape:label="Background"
     style="display:none"
     sodipodi:insensitive="true">
    <rect
       width="350"
       height="75"
       fill="#f2efed"
       id="rect1"
       x="0"
       y="0"
       style="stroke-width:0.979505" />
  </g>
  <path
     style="font-weight:900;font-size:48px;font-family:Archivo;-inkscape-font-specification:'Archivo Heavy';letter-spacing:-1.44px;fill:#1c3f74"
     d="m 26.397612,54.012039 v -33.024 h 9.024 l 10.272,11.856 q 0.432,0.48 1.152,1.392 0.72,0.912 1.44,1.872 0.768,0.912 1.152,1.488 l 0.24,-0.096 q -0.048,-1.344 -0.048,-2.64 0,-1.344 0,-2.016 v -11.856 h 9.648 v 33.024 h -8.976 l -11.568,-13.2 q -0.816,-0.96 -1.392,-1.728 -0.576,-0.816 -1.104,-1.536 l -0.24,0.096 q 0.048,0.912 0.048,1.824 0,0.912 0,1.344 v 13.2 z m 53.61601,0.576 q -8.256,0 -12.384,-4.32 -4.08,-4.32 -4.08,-12.768 0,-5.664 2.112,-9.456 2.112,-3.792 6.144,-5.712 4.032,-1.92 9.744,-1.92 3.456,0 6.48,0.816 3.072,0.768 5.376,2.352 2.352,1.536 3.648,3.888 1.296,2.352 1.296,5.472 h -10.128 q 0,-1.056 -0.528,-1.92 -0.48,-0.864 -1.344,-1.44 -0.864,-0.624 -2.016,-0.912 -1.104,-0.336 -2.352,-0.336 -1.872,0 -3.312,0.528 -1.44,0.48 -2.4,1.488 -0.912,1.008 -1.392,2.4 -0.48,1.392 -0.48,3.216 v 3.072 q 0,2.4 0.816,4.128 0.864,1.68 2.544,2.592 1.728,0.912 4.224,0.912 1.68,0 3.072,-0.48 1.44,-0.528 2.304,-1.488 0.864,-0.96 0.864,-2.208 v -0.192 h -7.488 v -6.72 h 17.616 v 18.432 h -5.472 l -1.056,-3.264 q -1.488,1.248 -3.264,2.112 -1.776,0.864 -3.888,1.296 -2.112,0.432 -4.656,0.432 z"
     id="text5"
     inkscape:label="text1"
     aria-label="NG" />
  <path
     d="M 140.81789,44.817329 V 30.182686 h 2.92267 l 5.88799,7.893321 q 0.128,0.149333 0.32,0.426666 0.192,0.255999 0.36266,0.511999 0.17067,0.256 0.23467,0.405333 h 0.10667 q 0,-0.362666 0,-0.703999 0,-0.362666 0,-0.639999 v -7.893321 h 3.00799 v 14.634643 h -2.92266 l -6.01599,-8.08532 q -0.21333,-0.298666 -0.448,-0.661332 -0.23467,-0.362667 -0.34133,-0.554666 h -0.10667 q 0,0.319999 0,0.639999 0,0.298666 0,0.575999 v 8.08532 z m 18.11198,0 5.63199,-14.634643 h 3.92532 l 5.632,14.634643 h -3.43467 l -1.04533,-2.879995 h -6.37865 l -1.04534,2.879995 z m 5.24799,-5.439991 h 4.54399 l -1.30133,-3.605328 q -0.0853,-0.234666 -0.21333,-0.554665 -0.10667,-0.341333 -0.23467,-0.746666 -0.128,-0.405333 -0.256,-0.789332 -0.10667,-0.405333 -0.21333,-0.725332 h -0.128 q -0.10667,0.405333 -0.27733,0.959998 -0.17067,0.533333 -0.34134,1.045332 -0.17066,0.490666 -0.27733,0.810665 z m 15.21067,5.439991 V 30.182686 h 8.36265 q 1.152,0 2.06933,0.447999 0.93867,0.447999 1.472,1.258665 0.53333,0.810665 0.53333,1.898663 0,0.874666 -0.32,1.557331 -0.32,0.682666 -0.87466,1.130665 -0.53334,0.448 -1.216,0.661333 v 0.08533 q 0.81066,0.170666 1.42933,0.639999 0.64,0.469332 1.00266,1.215998 0.384,0.725332 0.384,1.727997 0,1.322665 -0.61866,2.218663 -0.59733,0.895999 -1.6,1.343998 -1.00266,0.447999 -2.24,0.447999 z m 3.17866,-2.602662 h 4.58666 q 0.78933,0 1.28,-0.447999 0.512,-0.448 0.512,-1.386665 0,-0.554666 -0.21334,-0.959998 -0.21333,-0.405333 -0.64,-0.618666 -0.42666,-0.234666 -1.08799,-0.234666 h -4.43733 z m 0,-6.122657 h 4.22399 q 0.576,0 0.96,-0.213333 0.40533,-0.234666 0.59733,-0.597333 0.21334,-0.383999 0.21334,-0.874665 0,-0.831999 -0.46934,-1.258664 -0.448,-0.426666 -1.19466,-0.426666 h -4.33066 z m 15.74398,8.725319 V 30.182686 h 3.17866 v 14.634643 z m 9.94133,0 V 30.182686 h 3.17866 V 42.108 h 7.38133 v 2.709329 z m 30.48528,0.256 q -3.456,0 -5.33333,-1.834664 -1.85599,-1.855997 -1.85599,-5.738657 0,-2.58133 0.89599,-4.245327 0.896,-1.685331 2.60267,-2.495996 1.70666,-0.831999 4.09599,-0.831999 1.42933,0 2.688,0.32 1.25866,0.319999 2.21866,0.981332 0.98133,0.661332 1.51466,1.663997 0.55467,0.981332 0.55467,2.346663 h -3.22133 q 0,-0.661332 -0.29867,-1.173332 -0.27733,-0.511999 -0.78933,-0.853332 -0.512,-0.341332 -1.17333,-0.511999 -0.66133,-0.170666 -1.38666,-0.170666 -1.10934,0 -1.94133,0.298666 -0.832,0.277333 -1.38667,0.874665 -0.53333,0.575999 -0.81066,1.450665 -0.27734,0.874665 -0.27734,2.026663 v 0.639999 q 0,1.599998 0.46934,2.623996 0.46933,1.023998 1.40799,1.535998 0.93867,0.490665 2.32533,0.490665 1.152,0 2.02667,-0.341332 0.896,-0.362666 1.38666,-1.023999 0.512,-0.661332 0.512,-1.621331 v -0.149333 h -4.37333 v -2.431996 h 7.53066 v 7.914654 h -2.09066 l -0.27734,-1.578664 q -0.64,0.618666 -1.38666,1.023999 -0.72533,0.405332 -1.62133,0.597332 -0.896,0.213333 -2.00533,0.213333 z m 13.97331,-0.256 V 30.182686 h 3.17866 v 5.802657 h 6.48533 v -5.802657 h 3.17866 v 14.634643 h -3.17866 v -6.14399 h -6.48533 v 6.14399 z m 26.43197,0.256 q -2.32533,0 -4.01067,-0.831999 -1.68533,-0.831998 -2.58132,-2.517329 -0.896,-1.685331 -0.896,-4.223993 0,-2.58133 0.896,-4.245327 0.89599,-1.685331 2.58132,-2.495996 1.68534,-0.831999 4.01067,-0.831999 2.36799,0 4.03199,0.831999 1.68533,0.810665 2.58133,2.495996 0.896,1.663997 0.896,4.245327 0,2.538662 -0.896,4.223993 -0.896,1.685331 -2.58133,2.517329 -1.664,0.831999 -4.03199,0.831999 z m 0,-2.602663 q 1.04533,0 1.83466,-0.298666 0.78933,-0.298666 1.32266,-0.895998 0.53334,-0.597333 0.81067,-1.450665 0.27733,-0.874665 0.27733,-1.983997 v -0.661332 q 0,-1.130665 -0.27733,-2.00533 -0.27733,-0.874665 -0.81067,-1.450664 -0.53333,-0.597333 -1.32266,-0.895999 -0.78933,-0.298666 -1.83466,-0.298666 -1.024,0 -1.81334,0.298666 -0.78933,0.298666 -1.32266,0.895999 -0.53333,0.575999 -0.81067,1.450664 -0.256,0.874665 -0.256,2.00533 v 0.661332 q 0,1.109332 0.256,1.983997 0.27734,0.853332 0.81067,1.450665 0.53333,0.597332 1.32266,0.895998 0.78934,0.298666 1.81334,0.298666 z m 19.30662,2.602663 q -1.28,0 -2.432,-0.256 -1.152,-0.255999 -2.048,-0.810665 -0.87466,-0.575999 -1.38666,-1.429331 -0.49067,-0.874665 -0.49067,-2.111997 0,-0.106666 0,-0.213333 0,-0.128 0.0213,-0.191999 h 3.15732 q -0.0213,0.064 -0.0213,0.170666 0,0.106666 0,0.192 0,0.682665 0.36267,1.151998 0.384,0.469332 1.10933,0.703999 0.72533,0.234666 1.68533,0.234666 0.61867,0 1.088,-0.064 0.49066,-0.08533 0.85333,-0.213333 0.384,-0.149333 0.61867,-0.341333 0.256,-0.191999 0.36266,-0.447999 0.128,-0.256 0.128,-0.575999 0,-0.575999 -0.384,-0.938665 -0.36266,-0.362666 -1.024,-0.618666 -0.64,-0.255999 -1.45066,-0.469332 -0.81067,-0.213333 -1.664,-0.426666 -0.85333,-0.234667 -1.664,-0.554666 -0.81066,-0.341333 -1.45066,-0.810666 -0.64,-0.469332 -1.024,-1.194664 -0.384,-0.725333 -0.384,-1.749331 0,-1.087998 0.448,-1.87733 0.46933,-0.789332 1.30133,-1.301332 0.832,-0.511999 1.92,-0.746665 1.088,-0.256 2.368,-0.256 1.19466,0 2.26133,0.256 1.06666,0.234666 1.87733,0.767999 0.81066,0.533332 1.25866,1.343998 0.46933,0.810665 0.46933,1.919996 v 0.256 h -3.09332 v -0.170666 q 0,-0.575999 -0.34134,-0.981332 -0.34133,-0.405333 -0.96,-0.639999 -0.61866,-0.234666 -1.45066,-0.234666 -0.896,0 -1.536,0.170666 -0.61866,0.170666 -0.96,0.511999 -0.32,0.32 -0.32,0.767999 0,0.511999 0.36267,0.853332 0.384,0.319999 1.024,0.575999 0.66133,0.234666 1.472,0.426666 0.81066,0.192 1.66399,0.426666 0.85334,0.234666 1.664,0.554666 0.81067,0.319999 1.45067,0.810665 0.63999,0.469333 1.02399,1.173332 0.384,0.703999 0.384,1.68533 0,1.685331 -0.81066,2.709329 -0.81067,1.023999 -2.21867,1.493331 -1.40799,0.469333 -3.22132,0.469333 z m 12.30933,-0.256 V 30.182686 h 2.92266 l 5.88799,7.893321 q 0.128,0.149333 0.32,0.426666 0.192,0.255999 0.36267,0.511999 0.17067,0.256 0.23467,0.405333 h 0.10666 q 0,-0.362666 0,-0.703999 0,-0.362666 0,-0.639999 v -7.893321 h 3.008 V 44.817329 H 320.679 l -6.016,-8.08532 q -0.21333,-0.298666 -0.44799,-0.661332 -0.23467,-0.362667 -0.34134,-0.554666 h -0.10666 q 0,0.319999 0,0.639999 0,0.298666 0,0.575999 v 8.08532 z"
     id="text2"
     style="font-weight:bold;font-size:21.3333px;font-family:Archivo;-inkscape-font-specification:'Archivo Bold';letter-spacing:3.52px;text-transform:uppercase;fill:#1c3f74"
     aria-label="NABIL GHOSN" />
  <metadata
     id="metadata2">
    <rdf:RDF>
      <cc:Work
         rdf:about="">
        <dc:title>Nabil Ghosn</dc:title>
      </cc:Work>
    </rdf:RDF>
  </metadata>
  <rect
     width="2"
     height="34.175999"
     fill="#f2efed"
     id="rect6"
     x="122.61864"
     y="20.412001"
     inkscape:label="rect1"
     style="display:inline;opacity:0.3;fill:#1c3f74;fill-opacity:1;stroke-width:0.00206689" />
</svg>
