<?xml version="1.0" encoding="UTF-8"?>
<svg
   width="48"
   height="48"
   viewBox="0 0 48 48"
   id="favicon"
   xmlns="http://www.w3.org/2000/svg"
   xmlns:svg="http://www.w3.org/2000/svg">
  <defs id="defs1" />
  <circle
     style="fill:#f2efed;fill-opacity:1"
     cx="24"
     cy="24"
     r="24" />
  <path
     style="fill:#1c3f74;stroke-width:0.264583"
     d="m 6.0119991,32.25602 v -16.512 h 4.5119999 l 5.136,5.928 q 0.216,0.24 0.576,0.696 0.36,0.456 0.72,0.936 0.384,0.456 0.576,0.744 l 0.12,-0.048 q -0.024,-0.672 -0.024,-1.32 0,-0.672 0,-1.008 v -5.928 h 4.824 v 16.512 h -4.488 l -5.784,-6.6 q -0.408,-0.48 -0.696,-0.864 -0.288,-0.408 -0.552,-0.768 l -0.12,0.048 q 0.024,0.456 0.024,0.912 0,0.456 0,0.672 v 6.6 z m 26.8080049,0.288 q -4.128,0 -6.192,-2.16 -2.04,-2.16 -2.04,-6.384 0,-2.832 1.056,-4.728 1.056,-1.896 3.072,-2.856 2.016,-0.96 4.872,-0.96 1.728,0 3.24,0.408 1.536,0.384 2.688,1.176 1.176,0.768 1.824,1.944 0.648,1.176 0.648,2.736 h -5.064 q 0,-0.528 -0.264,-0.96 -0.24,-0.432 -0.672,-0.72 -0.432,-0.312 -1.008,-0.456 -0.552,-0.168 -1.176,-0.168 -0.936,0 -1.656,0.264 -0.72,0.24 -1.2,0.744 -0.456,0.504 -0.696,1.2 -0.24,0.696 -0.24,1.608 v 1.536 q 0,1.2 0.408,2.064 0.432,0.84 1.272,1.296 0.864,0.456 2.112,0.456 0.84,0 1.536,-0.24 0.72,-0.264 1.152,-0.744 0.432,-0.48 0.432,-1.104 v -0.096 h -3.744 v -3.36 h 8.808 v 9.216 h -2.736 l -0.528,-1.632 q -0.744,0.624 -1.632,1.056 -0.888,0.432 -1.944,0.648 -1.056,0.216 -2.328,0.216 z"
     aria-label="NG" />
</svg>
