<?xml version="1.0" encoding="UTF-8"?>
<svg aria-label="Nabil Ghosn — wordmark and monogram" role="img" version="1.1" viewBox="0 0 350 75" xmlns="http://www.w3.org/2000/svg" xmlns:cc="http://creativecommons.org/ns#" xmlns:dc="http://purl.org/dc/elements/1.1/" xmlns:rdf="http://www.w3.org/1999/02/22-rdf-syntax-ns#">
<title>Nabil Ghosn</title>
<path d="m26.398 54.012v-33.024h9.024l10.272 11.856q0.432 0.48 1.152 1.392t1.44 1.872q0.768 0.912 1.152 1.488l0.24-0.096q-0.048-1.344-0.048-2.64 0-1.344 0-2.016v-11.856h9.648v33.024h-8.976l-11.568-13.2q-0.816-0.96-1.392-1.728-0.576-0.816-1.104-1.536l-0.24 0.096q0.048 0.912 0.048 1.824t0 1.344v13.2zm53.616 0.576q-8.256 0-12.384-4.32-4.08-4.32-4.08-12.768 0-5.664 2.112-9.456t6.144-5.712 9.744-1.92q3.456 0 6.48 0.816 3.072 0.768 5.376 2.352 2.352 1.536 3.648 3.888t1.296 5.472h-10.128q0-1.056-0.528-1.92-0.48-0.864-1.344-1.44-0.864-0.624-2.016-0.912-1.104-0.336-2.352-0.336-1.872 0-3.312 0.528-1.44 0.48-2.4 1.488-0.912 1.008-1.392 2.4t-0.48 3.216v3.072q0 2.4 0.816 4.128 0.864 1.68 2.544 2.592 1.728 0.912 4.224 0.912 1.68 0 3.072-0.48 1.44-0.528 2.304-1.488t0.864-2.208v-0.192h-7.488v-6.72h17.616v18.432h-5.472l-1.056-3.264q-1.488 1.248-3.264 2.112t-3.888 1.296-4.656 0.432z" fill="#1c3f74" aria-label="NG"/>
<path d="m140.82 44.817v-14.635h2.9227l5.888 7.8933q0.128 0.14933 0.32 0.42667 0.192 0.256 0.36266 0.512 0.17067 0.256 0.23467 0.40533h0.10667q0-0.36267 0-0.704 0-0.36267 0-0.64v-7.8933h3.008v14.635h-2.9227l-6.016-8.0853q-0.21333-0.29867-0.448-0.66133-0.23467-0.36267-0.34133-0.55467h-0.10667q0 0.32 0 0.64 0 0.29867 0 0.576v8.0853zm18.112 0 5.632-14.635h3.9253l5.632 14.635h-3.4347l-1.0453-2.88h-6.3786l-1.0453 2.88zm5.248-5.44h4.544l-1.3013-3.6053q-0.0853-0.23467-0.21333-0.55466-0.10667-0.34133-0.23467-0.74667t-0.256-0.78933q-0.10667-0.40533-0.21333-0.72533h-0.128q-0.10667 0.40533-0.27733 0.96-0.17067 0.53333-0.34134 1.0453-0.17066 0.49067-0.27733 0.81066zm15.211 5.44v-14.635h8.3626q1.152 0 2.0693 0.448 0.93867 0.448 1.472 1.2587 0.53333 0.81066 0.53333 1.8987 0 0.87467-0.32 1.5573-0.32 0.68267-0.87466 1.1307-0.53334 0.448-1.216 0.66133v0.08533q0.81066 0.17067 1.4293 0.64 0.64 0.46933 1.0027 1.216 0.384 0.72533 0.384 1.728 0 1.3227-0.61866 2.2187-0.59733 0.896-1.6 1.344-1.0027 0.448-2.24 0.448zm3.1787-2.6027h4.5867q0.78933 0 1.28-0.448 0.512-0.448 0.512-1.3867 0-0.55467-0.21334-0.96-0.21333-0.40533-0.64-0.61867-0.42666-0.23467-1.088-0.23467h-4.4373zm0-6.1227h4.224q0.576 0 0.96-0.21333 0.40533-0.23467 0.59733-0.59733 0.21334-0.384 0.21334-0.87466 0-0.832-0.46934-1.2587-0.448-0.42667-1.1947-0.42667h-4.3307zm15.744 8.7253v-14.635h3.1787v14.635zm9.9413 0v-14.635h3.1787v11.925h7.3813v2.7093zm30.485 0.256q-3.456 0-5.3333-1.8347-1.856-1.856-1.856-5.7387 0-2.5813 0.89599-4.2453 0.896-1.6853 2.6027-2.496 1.7067-0.832 4.096-0.832 1.4293 0 2.688 0.32 1.2587 0.32 2.2187 0.98133 0.98133 0.66133 1.5147 1.664 0.55467 0.98133 0.55467 2.3467h-3.2213q0-0.66133-0.29867-1.1733-0.27733-0.512-0.78933-0.85333-0.512-0.34133-1.1733-0.512-0.66133-0.17067-1.3867-0.17067-1.1093 0-1.9413 0.29867-0.832 0.27733-1.3867 0.87466-0.53333 0.576-0.81066 1.4507-0.27734 0.87466-0.27734 2.0267v0.64q0 1.6 0.46934 2.624 0.46933 1.024 1.408 1.536 0.93867 0.49066 2.3253 0.49066 1.152 0 2.0267-0.34133 0.896-0.36267 1.3867-1.024 0.512-0.66133 0.512-1.6213v-0.14933h-4.3733v-2.432h7.5307v7.9147h-2.0907l-0.27734-1.5787q-0.64 0.61867-1.3867 1.024-0.72533 0.40533-1.6213 0.59733-0.896 0.21333-2.0053 0.21333zm13.973-0.256v-14.635h3.1787v5.8027h6.4853v-5.8027h3.1787v14.635h-3.1787v-6.144h-6.4853v6.144zm26.432 0.256q-2.3253 0-4.0107-0.832-1.6853-0.832-2.5813-2.5173-0.896-1.6853-0.896-4.224 0-2.5813 0.896-4.2453 0.89599-1.6853 2.5813-2.496 1.6853-0.832 4.0107-0.832 2.368 0 4.032 0.832 1.6853 0.81066 2.5813 2.496 0.896 1.664 0.896 4.2453 0 2.5387-0.896 4.224t-2.5813 2.5173q-1.664 0.832-4.032 0.832zm0-2.6027q1.0453 0 1.8347-0.29867t1.3227-0.896q0.53334-0.59733 0.81067-1.4507 0.27733-0.87466 0.27733-1.984v-0.66133q0-1.1307-0.27733-2.0053t-0.81067-1.4507q-0.53333-0.59733-1.3227-0.896t-1.8347-0.29867q-1.024 0-1.8133 0.29867-0.78933 0.29867-1.3227 0.896-0.53333 0.576-0.81067 1.4507-0.256 0.87466-0.256 2.0053v0.66133q0 1.1093 0.256 1.984 0.27734 0.85333 0.81067 1.4507 0.53333 0.59733 1.3227 0.896 0.78934 0.29867 1.8133 0.29867zm19.307 2.6027q-1.28 0-2.432-0.256-1.152-0.256-2.048-0.81066-0.87466-0.576-1.3867-1.4293-0.49067-0.87466-0.49067-2.112 0-0.10667 0-0.21333 0-0.128 0.0213-0.192h3.1573q-0.0213 0.064-0.0213 0.17067t0 0.192q0 0.68266 0.36267 1.152 0.384 0.46933 1.1093 0.704 0.72533 0.23467 1.6853 0.23467 0.61867 0 1.088-0.064 0.49066-0.08533 0.85333-0.21333 0.384-0.14933 0.61867-0.34133 0.256-0.192 0.36266-0.448 0.128-0.256 0.128-0.576 0-0.576-0.384-0.93866-0.36266-0.36267-1.024-0.61867-0.64-0.256-1.4507-0.46933-0.81067-0.21333-1.664-0.42667-0.85333-0.23467-1.664-0.55467-0.81066-0.34133-1.4507-0.81067-0.64-0.46933-1.024-1.1947-0.384-0.72533-0.384-1.7493 0-1.088 0.448-1.8773 0.46933-0.78933 1.3013-1.3013 0.832-0.512 1.92-0.74666 1.088-0.256 2.368-0.256 1.1947 0 2.2613 0.256 1.0667 0.23467 1.8773 0.768 0.81066 0.53333 1.2587 1.344 0.46933 0.81066 0.46933 1.92v0.256h-3.0933v-0.17067q0-0.576-0.34134-0.98133-0.34133-0.40533-0.96-0.64-0.61866-0.23467-1.4507-0.23467-0.896 0-1.536 0.17067-0.61866 0.17067-0.96 0.512-0.32 0.32-0.32 0.768 0 0.512 0.36267 0.85333 0.384 0.32 1.024 0.576 0.66133 0.23467 1.472 0.42667 0.81066 0.192 1.664 0.42667 0.85334 0.23467 1.664 0.55467 0.81067 0.32 1.4507 0.81066 0.63999 0.46933 1.024 1.1733t0.384 1.6853q0 1.6853-0.81066 2.7093-0.81067 1.024-2.2187 1.4933-1.408 0.46933-3.2213 0.46933zm12.309-0.256v-14.635h2.9227l5.888 7.8933q0.128 0.14933 0.32 0.42667 0.192 0.256 0.36267 0.512t0.23467 0.40533h0.10666q0-0.36267 0-0.704 0-0.36267 0-0.64v-7.8933h3.008v14.635h-2.9227l-6.016-8.0853q-0.21333-0.29867-0.44799-0.66133-0.23467-0.36267-0.34134-0.55467h-0.10666q0 0.32 0 0.64 0 0.29867 0 0.576v8.0853z" fill="#1c3f74" style="text-transform:uppercase" aria-label="NABIL GHOSN"/>
<metadata>
<rdf:RDF>
<cc:Work rdf:about="">
<dc:title>Nabil Ghosn</dc:title>
</cc:Work>
</rdf:RDF>
</metadata>
<rect x="122.62" y="20.412" width="2" height="34.176" fill="#1c3f74" opacity=".3" stroke-width=".0020669"/>
</svg>
